<?xml version="1.0" standalone="no"?>
<!DOCTYPE svg PUBLIC "-//W3C//DTD SVG 20010904//EN"
 "http://www.w3.org/TR/2001/REC-SVG-20010904/DTD/svg10.dtd">
<svg version="1.0" xmlns="http://www.w3.org/2000/svg"
 width="50.000000pt" height="60.000000pt" viewBox="0 0 300.000000 320.000000"
 preserveAspectRatio="xMidYMid meet">
<metadata>
Created by potrace 1.10, written by Peter Selinger 2001-2011
</metadata>
<g transform="translate(0.000000,320.000000) scale(0.100000,-0.100000)"
fill="#ff0000" stroke="none">
<path d="M1267 2955 c-353 -58 -643 -207 -878 -453 -141 -147 -245 -314 -308
-495 -48 -138 -62 -206 -75 -384 -4 -49 -4 -52 4 -23 5 19 17 80 26 135 9 55
21 104 25 110 5 5 9 23 9 41 0 18 4 34 9 36 5 2 12 17 15 33 3 17 12 48 21 70
9 22 18 48 22 58 3 9 9 17 13 17 4 0 10 13 13 30 4 16 15 38 26 49 11 11 17
22 14 25 -4 3 -2 6 4 6 6 0 16 14 23 30 7 17 16 30 20 30 4 0 15 16 26 35 10
19 21 35 24 35 11 0 41 60 35 70 -3 6 1 7 9 4 9 -3 16 -1 16 5 0 6 -5 11 -12
11 -6 0 -1 11 12 25 12 13 25 23 29 22 3 -1 6 1 6 5 0 11 68 79 90 89 11 6 3
-5 -17 -25 -30 -29 -34 -37 -22 -47 11 -9 14 -9 14 1 0 20 172 183 215 204 22
11 50 29 63 40 12 11 22 15 22 10 0 -5 4 -4 8 3 12 19 176 92 240 107 32 7 68
19 80 25 12 6 22 10 22 7 0 -3 15 1 33 8 17 8 52 17 77 20 49 7 49 7 -15 -40
-11 -8 5 -2 35 12 100 49 150 61 208 52 62 -9 103 -27 64 -28 -28 0 -125 -26
-167 -45 -76 -33 -109 -45 -129 -45 -27 0 -121 -44 -132 -61 -6 -11 -5 -12 7
-2 15 12 119 55 119 49 0 -4 -129 -86 -135 -86 -4 0 -132 -78 -185 -113 -41
-27 -37 -21 35 54 66 69 75 85 18 32 -8 -7 -34 -29 -58 -49 -25 -20 -45 -43
-45 -50 0 -8 -4 -14 -8 -14 -5 0 -17 -8 -28 -18 -33 -30 -81 -62 -95 -62 -7 0
-20 -7 -30 -16 -9 -8 -25 -17 -34 -18 -9 -1 -20 -8 -24 -15 -5 -7 -26 -23 -47
-36 -21 -14 -36 -25 -31 -25 4 0 -12 -17 -35 -37 -58 -52 -127 -124 -164 -170
-78 -96 -173 -269 -222 -404 -31 -85 -82 -316 -82 -373 0 -61 -9 -56 -11 7 -3
67 -19 83 -19 19 0 -69 33 -232 66 -324 151 -420 485 -742 921 -888 525 -175
1115 -62 1520 292 280 246 451 584 476 943 3 39 4 66 1 60 -4 -11 -54 -238
-59 -270 -2 -11 -4 -20 -5 -20 -1 0 -3 -12 -5 -26 -8 -63 -112 -292 -152 -335
-12 -13 -23 -28 -23 -32 0 -4 -7 -15 -15 -25 -8 -9 -15 -22 -15 -28 0 -6 -6
-9 -14 -6 -10 4 -12 0 -8 -15 4 -17 2 -20 -11 -15 -12 4 -14 2 -10 -10 4 -11
2 -14 -5 -9 -7 4 -12 2 -12 -3 0 -6 -17 -28 -37 -50 -21 -21 -72 -74 -114
-117 -73 -76 -141 -135 -143 -124 -1 3 -24 -11 -51 -31 -114 -84 -289 -159
-460 -199 -151 -35 -324 -53 -361 -39 -15 6 -13 8 12 8 16 1 70 15 120 32 49
17 99 31 111 30 12 0 36 6 55 14 38 16 23 20 -18 5 -48 -18 -35 -5 24 26 31
16 66 37 77 48 11 10 42 29 68 41 26 13 48 27 49 31 2 20 100 80 121 75 5 -1
6 3 3 8 -5 8 32 24 60 26 6 0 28 13 48 29 21 15 66 43 100 60 35 18 76 44 92
59 29 28 51 36 38 15 -4 -7 -3 -8 5 -4 6 4 9 11 7 15 -3 4 29 42 72 84 86 85
132 136 132 147 0 4 7 13 16 21 23 19 120 187 157 271 17 40 34 75 37 78 4 3
21 66 39 140 28 117 36 158 41 205 0 6 8 1 16 -10 15 -19 16 -13 10 75 -14
221 -114 477 -266 678 -212 281 -539 484 -905 562 -133 28 -420 36 -548 15z
m316 -12 c-7 -2 -21 -2 -30 0 -10 3 -4 5 12 5 17 0 24 -2 18 -5z m188 -24 c23
-11 38 -16 34 -10 -9 15 10 14 90 -9 104 -28 225 -74 281 -105 27 -16 63 -35
79 -44 17 -8 35 -19 40 -23 6 -5 55 -41 110 -82 94 -69 153 -124 218 -206 l28
-35 -27 45 c-34 57 -9 37 48 -38 23 -31 46 -59 49 -62 28 -25 119 -187 134
-240 5 -18 0 -14 -20 15 -15 22 -37 51 -50 65 -13 14 -37 48 -53 75 -16 28
-35 49 -42 47 -11 -3 -11 0 0 13 7 9 9 15 4 14 -29 -5 -91 40 -76 56 4 5 2 6
-3 2 -6 -3 -30 12 -53 34 -24 21 -45 39 -48 39 -3 0 -40 24 -82 53 -43 28
-125 72 -184 95 -79 33 -123 58 -174 100 -109 92 -124 100 -44 23 l75 -72 -45
22 c-25 12 -55 31 -67 42 -13 11 -23 17 -23 13 0 -3 -25 9 -55 29 -71 45 -195
107 -264 131 -52 18 -53 19 -25 25 57 13 105 9 145 -12z m-97 -39 c101 -40
290 -144 315 -174 7 -9 40 -23 73 -32 53 -15 66 -24 121 -88 34 -39 72 -85 85
-101 13 -17 20 -24 17 -17 -6 11 -3 11 12 1 24 -14 83 -110 76 -122 -3 -4 -11
0 -19 10 -13 16 -13 15 -3 -9 9 -21 15 -25 25 -18 9 8 20 -3 44 -45 33 -58 52
-77 25 -25 -8 16 -15 34 -15 40 0 5 -25 52 -55 103 -64 106 -144 202 -145 174
0 -11 4 -15 12 -11 7 4 8 3 4 -4 -5 -8 -22 3 -49 31 -23 23 -41 43 -41 45 4 9
140 -55 220 -103 220 -133 390 -313 520 -550 l39 -70 0 -165 c-1 -180 -14
-264 -64 -413 -72 -212 -172 -371 -335 -533 -134 -133 -204 -183 -367 -265
-68 -34 -131 -67 -139 -74 -8 -8 -17 -13 -20 -13 -13 1 -92 -24 -117 -37 -15
-8 -34 -15 -41 -15 -7 0 -24 -7 -37 -16 -15 -10 -25 -12 -25 -5 0 11 -21 11
-30 -1 -3 -4 -30 -9 -60 -13 -30 -3 -62 -8 -70 -10 -59 -17 -219 -20 -234 -5
-13 13 -29 13 -21 0 8 -14 -58 0 -67 14 -6 8 -8 7 -8 -1 0 -8 -9 -9 -28 -4
-15 4 -44 7 -64 7 -21 -1 -38 2 -38 5 0 6 -78 21 -130 24 -14 1 -35 7 -47 13
-12 7 -29 12 -39 12 -10 0 -14 3 -10 7 7 7 -52 73 -67 73 -4 0 8 -16 29 -35
20 -19 32 -35 26 -35 -29 0 -190 67 -268 112 -240 136 -435 337 -558 573 l-41
80 1 150 c1 282 72 511 235 756 84 125 236 276 365 362 107 71 132 82 94 42
-12 -13 -27 -22 -31 -19 -14 8 -109 -149 -103 -170 4 -12 2 -16 -5 -12 -7 5
-8 1 -4 -10 5 -13 13 -4 37 36 41 69 134 197 170 235 16 17 26 24 21 16 -4 -8
12 -1 36 16 24 17 64 41 89 53 25 13 77 44 115 70 76 51 166 99 247 131 59 23
206 68 226 68 8 1 60 -17 116 -39z m591 -340 c3 -5 1 -10 -4 -10 -6 0 -11 5
-11 10 0 6 2 10 4 10 3 0 8 -4 11 -10z m-1965 -169 c-29 -42 -36 -39 -8 3 13
19 24 33 26 31 3 -2 -6 -18 -18 -34z m-96 -1456 c3 -8 1 -15 -3 -15 -5 0 -11
7 -15 15 -3 8 -1 15 3 15 5 0 11 -7 15 -15z m26 -45 c0 -11 9 -25 20 -32 11
-7 20 -17 20 -23 0 -12 39 -63 40 -52 0 5 -5 18 -11 30 -10 21 -10 21 5 3 9
-11 16 -23 16 -28 0 -4 4 -8 10 -8 5 0 29 -19 54 -42 24 -24 55 -51 67 -60 13
-9 49 -35 79 -57 95 -69 246 -141 405 -192 31 -10 222 -126 245 -149 3 -3 10
-6 17 -7 6 -1 41 -16 78 -33 37 -17 84 -35 104 -40 31 -8 28 -9 -19 -4 -30 3
-73 7 -95 10 -98 10 -257 56 -365 107 -30 14 -82 38 -115 53 -33 16 -61 32
-63 36 -2 4 -9 8 -15 8 -7 0 -28 14 -47 30 -19 17 -43 33 -52 36 -10 3 -18 9
-18 14 0 5 -8 11 -19 15 -19 6 -75 59 -222 211 -106 110 -162 194 -129 194 6
0 10 -9 10 -20z m1765 -439 c-34 -30 -161 -108 -234 -142 -90 -43 -278 -109
-311 -109 -28 0 -155 47 -235 87 -97 49 -201 116 -186 121 6 2 22 -3 35 -12
26 -17 49 -22 138 -32 32 -4 55 -10 53 -15 -3 -4 19 -6 49 -3 30 3 57 1 60 -4
3 -5 -21 -10 -55 -10 -80 -1 -85 -8 -11 -17 43 -5 99 0 208 18 82 14 191 28
242 31 97 7 167 24 107 26 -26 1 -21 4 30 23 33 13 69 28 80 35 24 14 44 16
30 3z m-585 -105 c0 -2 -7 -6 -15 -10 -8 -3 -15 -1 -15 4 0 6 7 10 15 10 8 0
15 -2 15 -4z"/>
<path d="M1840 2887 c0 -2 26 -21 58 -41 31 -20 45 -27 30 -14 -30 26 -88 62
-88 55z"/>
<path d="M1587 2793 c-4 -6 23 -10 71 -9 42 1 104 -2 137 -6 46 -6 54 -5 35 3
-34 15 -235 24 -243 12z"/>
<path d="M1538 2783 c6 -2 18 -2 25 0 6 3 1 5 -13 5 -14 0 -19 -2 -12 -5z"/>
<path d="M1450 2770 c-20 -6 -21 -8 -5 -8 11 0 29 3 40 8 25 11 -1 11 -35 0z"/>
<path d="M1158 2733 c7 -3 16 -2 19 1 4 3 -2 6 -13 5 -11 0 -14 -3 -6 -6z"/>
<path d="M1353 2693 c9 -2 23 -2 30 0 6 3 -1 5 -18 5 -16 0 -22 -2 -12 -5z"/>
<path d="M1180 2356 c-162 -173 -296 -319 -297 -323 -3 -7 477 -465 587 -560
l38 -33 212 228 c117 125 253 269 303 320 49 51 88 94 86 96 -2 1 -144 133
-316 294 -171 161 -313 292 -315 292 -2 0 -136 -141 -298 -314z m520 72 c118
-110 250 -234 292 -274 l77 -73 -261 -278 c-143 -153 -271 -289 -283 -302
l-23 -24 -296 277 -295 278 282 299 c154 164 284 299 287 299 3 0 102 -91 220
-202z"/>
<path d="M1389 2412 c-42 -42 -110 -117 -153 -167 -42 -49 -89 -103 -103 -118
-21 -24 -23 -31 -12 -38 26 -17 47 -9 97 36 l51 46 15 -23 c8 -13 22 -39 32
-59 l17 -37 -33 -41 c-18 -23 -30 -44 -27 -47 4 -4 25 5 48 21 33 21 43 24 50
13 5 -7 9 -16 9 -20 0 -4 33 -51 74 -105 75 -101 141 -171 151 -161 3 3 -9 39
-28 79 -19 41 -38 85 -42 99 -4 14 -19 41 -34 60 -15 19 -42 59 -60 87 l-33
53 23 37 c12 21 29 46 37 56 8 9 10 17 5 17 -6 0 -23 -16 -39 -35 -15 -19 -32
-35 -38 -35 -6 1 -28 26 -48 57 l-36 56 24 36 c14 20 27 44 30 54 4 9 10 17
15 17 5 0 9 5 9 12 0 6 19 35 41 65 23 29 40 56 37 58 -2 2 -38 -30 -79 -73z
m-90 -148 c-11 -29 -3 -46 57 -121 19 -23 34 -47 34 -54 0 -12 47 -99 59 -109
34 -29 91 -143 78 -156 -5 -6 -117 140 -117 153 0 5 -13 22 -30 38 -16 16 -30
36 -30 44 -1 23 -52 112 -72 125 -12 7 -24 3 -52 -22 -20 -18 -39 -32 -41 -32
-15 0 0 27 34 61 21 22 49 53 61 69 28 37 32 38 19 4z"/>
<path d="M1125 2610 c-3 -6 1 -7 9 -4 18 7 21 14 7 14 -6 0 -13 -4 -16 -10z"/>
<path d="M2298 2434 c6 -11 18 -28 27 -39 15 -19 15 -18 1 12 -9 17 -21 35
-27 39 -8 4 -8 1 -1 -12z"/>
<path d="M2381 2300 c0 -8 4 -22 9 -30 12 -18 12 -2 0 25 -6 13 -9 15 -9 5z"/>
<path d="M2725 2190 c3 -14 9 -43 15 -65 9 -39 9 -39 4 10 -3 28 -10 57 -15
65 -7 11 -8 8 -4 -10z"/>
<path d="M366 2102 c-2 -4 -1 -14 5 -22 7 -12 9 -10 9 8 0 23 -5 28 -14 14z"/>
<path d="M356 2015 c-4 -27 -11 -66 -16 -85 -53 -221 -90 -431 -84 -486 3 -27
7 -61 8 -76 2 -16 -2 -28 -8 -28 -8 0 -8 -2 0 -8 6 -4 19 -47 28 -97 9 -49 19
-102 22 -117 3 -16 10 -28 15 -28 5 0 10 -10 10 -22 1 -18 2 -19 6 -5 3 10 0
24 -6 30 -5 7 -13 44 -16 83 -3 38 -10 85 -16 104 -5 19 -12 91 -15 160 -6
132 -1 170 61 458 14 68 25 133 23 145 -2 13 -7 1 -12 -28z"/>
<path d="M2673 1994 c-3 -9 5 -91 18 -183 16 -114 24 -207 23 -296 -1 -128 -4
-145 -60 -385 -24 -106 -25 -110 -14 -110 5 0 13 12 16 28 28 115 41 161 45
157 3 -2 4 8 4 23 -1 15 6 68 16 117 25 124 20 238 -22 494 -17 104 -20 138
-10 152 7 12 8 19 1 19 -6 0 -13 -7 -17 -16z"/>
<path d="M2497 1945 c3 -22 7 -42 9 -44 8 -9 2 45 -6 64 -7 14 -8 8 -3 -20z"/>
<path d="M2511 1874 c0 -11 3 -14 6 -6 3 7 2 16 -1 19 -3 4 -6 -2 -5 -13z"/>
<path d="M2522 1820 c0 -19 2 -27 5 -17 2 9 2 25 0 35 -3 9 -5 1 -5 -18z"/>
<path d="M2532 1745 c0 -16 2 -22 5 -12 2 9 2 23 0 30 -3 6 -5 -1 -5 -18z"/>
<path d="M2636 1587 c3 -10 9 -15 12 -12 3 3 0 11 -7 18 -10 9 -11 8 -5 -6z"/>
<path d="M341 1534 c0 -11 3 -14 6 -6 3 7 2 16 -1 19 -3 4 -6 -2 -5 -13z"/>
<path d="M2641 1540 c-1 -8 -4 -33 -6 -55 -2 -22 -6 -58 -10 -80 -3 -22 -7
-48 -8 -57 0 -10 -5 -18 -9 -18 -4 0 -7 -3 -6 -7 1 -5 -1 -28 -5 -53 -5 -25
-8 -47 -9 -50 0 -3 -4 -13 -10 -23 -5 -10 -12 -28 -14 -40 -3 -12 -6 -26 -8
-32 -1 -5 -7 -20 -14 -31 -6 -12 -9 -24 -6 -27 3 -2 -4 -20 -15 -38 -12 -19
-21 -40 -21 -48 0 -15 38 48 70 117 41 89 89 352 77 428 -2 16 -5 22 -6 14z"/>
<path d="M452 1490 c0 -14 2 -19 5 -12 2 6 2 18 0 25 -3 6 -5 1 -5 -13z"/>
<path d="M345 1415 c4 -44 16 -114 26 -155 10 -41 19 -83 19 -92 0 -10 9 -32
19 -50 11 -17 17 -36 14 -41 -3 -6 -1 -7 5 -3 7 4 12 2 12 -5 0 -7 3 -9 6 -6
4 4 2 13 -4 20 -7 8 -9 17 -5 20 3 4 2 7 -4 7 -6 0 -9 14 -8 30 1 17 -2 30 -7
30 -6 0 -8 9 -5 20 3 11 2 22 -3 25 -7 4 -11 24 -26 120 -1 11 -7 35 -13 53
-6 19 -6 30 0 27 13 -9 12 -4 -12 40 l-21 40 7 -80z"/>
<path d="M467 1344 c7 -128 74 -358 143 -493 32 -65 33 -44 1 24 -61 129 -118
330 -144 510 -3 17 -3 -2 0 -41z"/>
<path d="M2522 1385 c0 -16 2 -22 5 -12 2 9 2 23 0 30 -3 6 -5 -1 -5 -18z"/>
<path d="M810 1340 c0 -5 9 -10 20 -10 19 0 20 -7 20 -120 0 -113 -1 -120 -20
-120 -11 0 -20 -4 -20 -10 0 -6 32 -10 75 -10 43 0 75 4 75 10 0 6 -9 10 -20
10 -18 0 -20 7 -20 60 0 33 4 60 8 60 13 0 38 -23 50 -45 9 -16 11 -8 11 45
l0 65 -20 -27 c-33 -45 -49 -36 -49 27 l0 55 35 0 c37 0 75 -28 75 -55 0 -8 5
-15 11 -15 6 0 9 17 7 43 l-3 42 -117 3 c-76 2 -118 -1 -118 -8z m81 -130 c0
-56 -3 -105 -6 -108 -3 -3 -5 46 -5 108 0 62 2 111 5 108 4 -3 6 -52 6 -108z"/>
<path d="M1095 1224 c-33 -84 -56 -128 -67 -131 -34 -10 -18 -23 27 -23 25 0
45 5 45 10 0 6 -9 10 -20 10 -23 0 -23 0 -10 34 8 23 15 26 54 26 40 0 45 -3
55 -30 9 -27 8 -30 -10 -30 -10 0 -19 -4 -19 -10 0 -6 30 -10 70 -10 39 0 70
4 70 9 0 5 -8 11 -17 13 -12 2 -32 42 -64 128 -26 68 -51 125 -55 127 -5 1
-31 -54 -59 -123z m94 -17 c35 -88 35 -87 22 -87 -9 0 -40 71 -45 103 -1 10
-7 22 -13 28 -6 6 -9 18 -6 26 7 18 6 20 42 -70z m-35 -24 c7 -21 4 -23 -28
-23 -42 0 -42 1 -18 58 l17 42 11 -27 c6 -16 15 -38 18 -50z"/>
<path d="M1300 1340 c0 -5 9 -10 20 -10 19 0 20 -7 20 -120 0 -113 -1 -120
-20 -120 -11 0 -20 -4 -20 -10 0 -6 30 -10 70 -10 40 0 70 4 70 10 0 6 -9 10
-20 10 -19 0 -20 7 -20 120 0 113 1 120 20 120 11 0 20 5 20 10 0 6 -30 10
-70 10 -40 0 -70 -4 -70 -10z m80 -136 c0 -49 -4 -84 -10 -84 -6 0 -10 37 -10
91 0 57 4 88 10 84 6 -3 10 -44 10 -91z"/>
<path d="M1480 1305 c0 -25 5 -45 10 -45 6 0 10 8 10 18 0 30 33 52 78 52 l41
0 -74 -119 c-41 -65 -75 -123 -75 -130 0 -7 36 -11 115 -11 l115 0 0 55 c0 30
-2 55 -5 55 -2 0 -13 -17 -24 -39 -23 -44 -36 -51 -93 -51 -38 0 -40 1 -26 18
20 23 148 227 148 235 0 4 -49 7 -110 7 l-110 0 0 -45z m145 -37 c-14 -24 -40
-66 -56 -95 -36 -62 -73 -99 -43 -42 34 64 109 178 117 179 5 0 -4 -19 -18
-42z"/>
<path d="M1750 1305 c0 -25 5 -45 10 -45 6 0 10 8 10 18 0 32 34 54 78 50 l39
-3 -73 -115 c-41 -63 -74 -121 -74 -127 0 -10 30 -13 115 -13 l115 0 0 55 c0
30 -2 55 -5 55 -2 0 -11 -13 -20 -29 -25 -49 -43 -61 -92 -61 -43 0 -45 1 -31
18 20 23 148 227 148 235 0 4 -49 7 -110 7 l-110 0 0 -45z m140 -48 c-17 -31
-38 -61 -45 -67 -8 -7 -15 -19 -15 -26 0 -8 -4 -14 -10 -14 -5 0 -10 -6 -10
-14 0 -7 -7 -19 -15 -26 -24 -20 -8 13 48 98 26 40 47 76 47 80 0 10 22 33 27
28 3 -2 -10 -29 -27 -59z"/>
<path d="M2000 1340 c0 -5 4 -10 10 -10 5 0 26 -30 46 -67 30 -52 38 -77 38
-120 1 -49 -1 -53 -21 -53 -13 0 -23 -4 -23 -10 0 -6 32 -10 75 -10 43 0 75 4
75 10 0 6 -9 10 -20 10 -18 0 -20 7 -20 56 0 45 7 68 36 120 20 35 42 64 50
64 8 0 14 5 14 10 0 6 -18 10 -40 10 -38 0 -56 -15 -26 -22 11 -2 8 -15 -13
-57 l-28 -54 -30 56 c-28 52 -29 57 -12 57 10 0 19 5 19 10 0 6 -28 10 -65 10
-37 0 -65 -4 -65 -10z m100 -72 c14 -24 24 -46 22 -50 -1 -5 3 -8 8 -8 12 0
13 -87 1 -94 -4 -3 -11 21 -14 53 -5 55 -17 89 -44 119 -15 16 -16 22 -5 22 5
0 19 -19 32 -42z"/>
<path d="M2506 1305 c-21 -135 -101 -355 -177 -491 -27 -48 -47 -89 -45 -91 4
-5 52 79 102 179 63 126 142 388 132 436 -2 9 -8 -5 -12 -33z"/>
<path d="M100 1229 c0 -5 5 -7 10 -4 6 3 10 8 10 11 0 2 -4 4 -10 4 -5 0 -10
-5 -10 -11z"/>
<path d="M115 1185 c7 -31 12 -41 19 -34 2 2 -3 18 -11 34 l-14 30 6 -30z"/>
<path d="M135 1130 c3 -5 8 -10 11 -10 2 0 4 5 4 10 0 6 -5 10 -11 10 -5 0 -7
-4 -4 -10z"/>
<path d="M450 1041 c0 -6 4 -13 10 -16 6 -3 7 1 4 9 -7 18 -14 21 -14 7z"/>
<path d="M2620 990 c-6 -11 -8 -20 -6 -20 3 0 10 9 16 20 6 11 8 20 6 20 -3 0
-10 -9 -16 -20z"/>
<path d="M1012 928 l-21 -33 35 -14 36 -14 -4 -98 c-3 -85 -1 -99 13 -99 22 0
38 16 98 93 29 37 54 67 56 67 2 0 1 -18 -2 -41 -5 -36 12 -119 25 -119 3 0
20 10 40 22 38 23 68 80 86 162 6 27 17 51 24 54 27 9 22 -32 -12 -103 -45
-95 -32 -89 28 13 47 81 55 109 34 130 -36 36 -81 -19 -120 -143 l-22 -70 -7
40 c-5 22 -8 57 -8 79 -1 37 -2 38 -28 31 -16 -3 -35 -15 -43 -25 -56 -70
-125 -148 -128 -146 -1 2 7 42 19 90 21 85 21 87 3 107 -17 19 -65 49 -78 49
-2 0 -13 -15 -24 -32z m66 -24 c21 -14 31 -45 15 -43 -11 0 -56 59 -46 59 5 0
19 -7 31 -16z m197 -182 c-11 -32 -25 5 -24 66 l1 67 14 -60 c7 -33 11 -66 9
-73z"/>
<path d="M1948 953 c-25 -4 -28 -9 -28 -40 0 -28 -3 -34 -16 -29 -9 3 -25 -4
-40 -19 -18 -18 -24 -35 -24 -69 0 -59 16 -67 52 -27 l28 31 0 -30 c0 -22 5
-30 18 -30 32 0 37 15 38 118 0 56 0 101 0 101 -1 -1 -13 -4 -28 -6z m-28
-108 c0 -11 -24 -55 -30 -55 -4 0 -7 14 -8 30 0 23 4 30 19 30 10 0 19 -2 19
-5z"/>
<path d="M500 947 c0 -15 112 -232 147 -285 52 -77 141 -172 163 -172 11 0 22
-5 25 -10 3 -6 14 -10 23 -10 13 0 12 3 -6 16 -12 8 -19 20 -16 26 4 7 2 8 -4
4 -10 -6 -61 32 -110 84 -27 28 -74 99 -119 180 -45 80 -103 175 -103 167z"/>
<path d="M1762 942 c-9 -6 -12 -33 -10 -97 2 -70 6 -90 20 -99 14 -8 22 -7 35
7 16 16 16 19 3 27 -12 7 -14 24 -10 89 4 68 3 81 -10 81 -8 0 -21 -4 -28 -8z"/>
<path d="M1693 878 c-6 -7 -13 -20 -16 -28 -4 -10 -6 -7 -6 8 -1 17 -7 22 -26
22 -25 0 -26 -1 -23 -62 3 -58 5 -63 30 -72 31 -11 33 -10 42 22 6 16 3 22 -8
22 -20 0 -21 24 -2 39 11 9 16 9 22 -1 5 -8 10 -3 15 17 12 41 -6 61 -28 33z"/>
<path d="M1475 855 c-67 -66 14 -153 89 -94 29 23 35 71 12 102 -20 26 -72 22
-101 -8z m64 -27 c4 -12 6 -30 3 -40 -7 -30 -42 -3 -42 32 0 36 26 41 39 8z"/>
<path d="M2406 835 c-9 -26 -7 -32 5 -12 6 10 9 21 6 23 -2 3 -7 -2 -11 -11z"/>
<path d="M457 809 c7 -7 15 -10 18 -7 3 3 -2 9 -12 12 -14 6 -15 5 -6 -5z"/>
<path d="M475 780 c-7 -11 18 -75 34 -84 13 -8 4 18 -17 51 -7 12 -11 27 -7
33 3 5 4 10 1 10 -3 0 -7 -4 -11 -10z"/>
<path d="M2321 705 c-24 -36 -54 -71 -65 -79 -31 -21 -94 -80 -76 -71 8 5 29
19 47 31 17 13 36 24 41 24 15 0 60 57 88 111 34 69 17 60 -35 -16z"/>
<path d="M2100 619 c-86 -56 -204 -117 -311 -159 -41 -16 -68 -29 -62 -29 20
-1 132 43 218 87 82 41 258 152 240 151 -5 0 -44 -23 -85 -50z"/>
<path d="M1050 500 c8 -5 20 -10 25 -10 6 0 3 5 -5 10 -8 5 -19 10 -25 10 -5
0 -3 -5 5 -10z"/>
<path d="M1160 464 c99 -33 205 -53 315 -59 l90 -5 -114 15 c-63 8 -159 26
-215 40 -148 36 -159 38 -76 9z"/>
<path d="M1621 408 c-24 -4 -46 -10 -49 -13 -7 -7 53 -5 108 4 41 6 43 7 15
12 -16 2 -50 1 -74 -3z"/>
<path d="M1107 279 c7 -7 15 -10 18 -7 3 3 -2 9 -12 12 -14 6 -15 5 -6 -5z"/>
<path d="M1570 243 c-32 -10 -70 -13 -135 -9 -68 4 -84 3 -65 -5 33 -14 183
-5 240 14 25 8 36 15 25 15 -11 0 -40 -7 -65 -15z"/>
<path d="M1340 2900 c-18 -12 -2 -12 25 0 13 6 15 9 5 9 -8 0 -22 -4 -30 -9z"/>
<path d="M1288 2883 c-28 -7 -21 -21 7 -15 14 2 25 8 25 13 0 9 -4 10 -32 2z"/>
<path d="M417 2503 c-5 -8 9 -53 16 -53 6 0 2 48 -5 55 -3 4 -8 3 -11 -2z"/>
<path d="M370 2455 c-7 -9 -11 -18 -8 -20 3 -3 11 1 18 10 7 9 11 18 8 20 -3
3 -11 -1 -18 -10z"/>
<path d="M372 2410 c-18 -29 -15 -33 8 -10 21 21 25 30 12 30 -4 0 -13 -9 -20
-20z"/>
<path d="M327 2344 c-11 -14 -17 -27 -15 -30 3 -2 14 10 27 26 12 17 18 30 14
30 -4 0 -16 -12 -26 -26z"/>
<path d="M2100 450 c-8 -5 -12 -11 -10 -14 3 -2 14 2 24 10 22 15 10 19 -14 4z"/>
</g>
</svg>
